<svg xmlns="http://www.w3.org/2000/svg" version="1.1" xmlns:xlink="http://www.w3.org/1999/xlink" xmlns:svgjs="http://svgjs.dev/svgjs" width="1440" height="560" preserveAspectRatio="none" viewBox="0 0 1440 560"><g mask="url(&quot;#SvgjsMask1063&quot;)" fill="none"><path d="M869.0552762088125 466.9222005534398L966.2644657225679 437.20236879935527 936.5446339684834 339.99317928559987 839.335444454728 369.7130110396844z" fill="rgba(0, 113, 227, 1)" class="triangle-float3"></path><path d="M189.37682636878566 81.90918775826141L138.96269532769895 237.06792890440983 294.1214364738474 287.48205994549653 344.5355675149341 132.3233187993481z" fill="rgba(0, 113, 227, 1)" class="triangle-float1"></path><path d="M593.0924103165034 270.76280653137667L514.1170422176449 392.37420887116883 635.7284445574371 471.34957697002733 714.7038126562956 349.7381746302352z" fill="rgba(0, 113, 227, 1)" class="triangle-float2"></path><path d="M718.0360509691639 155.1335008438737L684.9622999754854 22.481930957915864 552.3107300895275 55.55568195159435 585.3844810832061 188.20725183755218z" fill="rgba(0, 113, 227, 1)" class="triangle-float2"></path><path d="M1414.0758281735818 155.21119112454187L1321.1045276171799 215.58745965531716 1381.4807961479553 308.558760211719 1474.4520967043572 248.1824916809437z" fill="rgba(0, 113, 227, 1)" class="triangle-float2"></path><path d="M41.05994348969512 336.45498708183015L215.1033304305384 293.2372333007251 108.192099594619 178.5889746020593z" fill="rgba(0, 113, 227, 1)" class="triangle-float1"></path><path d="M1199.7730239768798-113.11620536420816L1072.569424592773-27.31629420661598 1285.572935134472 14.087394019898795z" fill="rgba(0, 113, 227, 1)" class="triangle-float3"></path><path d="M1039.82310689393-42.74796094103253L999.685455591347 107.04779301668985 1149.4812095490695 147.18544431927273 1189.6188608516522-2.610309638449671z" fill="rgba(0, 113, 227, 1)" class="triangle-float1"></path><path d="M1169.9579397727978 365.6830611808142L1283.8097258242396 361.70726920388796 1279.8339338473133 247.85548315244614 1165.9821477958715 251.83127512937241z" fill="rgba(0, 113, 227, 1)" class="triangle-float2"></path><path d="M308.53816473507635 162.3679467978106L379.4491393751601 88.93748297756957 306.01867555491907 18.026508337485836 235.10770091483533 91.45697215772685z" fill="rgba(0, 113, 227, 1)" class="triangle-float2"></path><path d="M510.32409872489893 304.8616606061316L351.2311377877335 310.417309222778 356.7867864043799 469.5102701599434 515.8797473415453 463.954621543297z" fill="rgba(0, 113, 227, 1)" class="triangle-float3"></path><path d="M1371.9215143764363 139.48560733966974L1333.1251784298922 204.05355324588106 1449.3752652624812 229.96408421259162z" fill="rgba(0, 113, 227, 1)" class="triangle-float3"></path><path d="M185.5792934311291 487.7341663513972L49.75264476663648 473.45821031481603 35.47668873005529 609.2848589793086 171.3033373945479 623.5608150158898z" fill="rgba(0, 113, 227, 1)" class="triangle-float2"></path><path d="M326.44934825387315 50.040220716889216L211.601054476463 139.76954187400065 301.3303756335744 254.61783565141081 416.1786694109846 164.8885144942994z" fill="rgba(0, 113, 227, 1)" class="triangle-float2"></path><path d="M1417.1568182398162 206.064051249295L1349.7447097117695 102.04160650032316 1298.8742083824804 197.71510465575255z" fill="rgba(0, 113, 227, 1)" class="triangle-float1"></path><path d="M1070.1544832625111 278.61293943959583L1193.8673483984824 293.8029692633563 1085.3445130862717 154.9000743036246z" fill="rgba(0, 113, 227, 1)" class="triangle-float2"></path><path d="M227.81695132929042 421.0837454121212L286.77431904620744 318.9665890458998 125.69979496306904 362.12637769520416z" fill="rgba(0, 113, 227, 1)" class="triangle-float2"></path><path d="M888.1847149386713 552.903099536846L802.2405861114014 472.75890284045806 722.0963894150135 558.703031667728 808.0405182422834 638.8472283641158z" fill="rgba(0, 113, 227, 1)" class="triangle-float3"></path><path d="M783.462269306712 69.09864822010586L702.5893245253208-46.399886668802935 587.090789636412 34.473058112588234 667.9637344178032 149.971593001497z" fill="rgba(0, 113, 227, 1)" class="triangle-float1"></path><path d="M1411.585876100048 126.89353301657735L1286.560068204251 172.39920560573185 1332.0657407934054 297.42501350152895 1457.0915486892025 251.91934091237445z" fill="rgba(0, 113, 227, 1)" class="triangle-float2"></path></g><defs><mask id="SvgjsMask1063"><rect width="1440" height="560" fill="#ffffff"></rect></mask><style>
                @keyframes float1 {
                    0%{transform: translate(0, 0)}
                    50%{transform: translate(-10px, 0)}
                    100%{transform: translate(0, 0)}
                }

                .triangle-float1 {
                    animation: float1 5s infinite;
                }

                @keyframes float2 {
                    0%{transform: translate(0, 0)}
                    50%{transform: translate(-5px, -5px)}
                    100%{transform: translate(0, 0)}
                }

                .triangle-float2 {
                    animation: float2 4s infinite;
                }

                @keyframes float3 {
                    0%{transform: translate(0, 0)}
                    50%{transform: translate(0, -10px)}
                    100%{transform: translate(0, 0)}
                }

                .triangle-float3 {
                    animation: float3 6s infinite;
                }
            </style></defs></svg>