<svg xmlns="http://www.w3.org/2000/svg" version="1.1" xmlns:xlink="http://www.w3.org/1999/xlink" xmlns:svgjs="http://svgjs.dev/svgjs" width="1440" height="560" preserveAspectRatio="none" viewBox="0 0 1440 560"><g mask="url(&quot;#SvgjsMask1030&quot;)" fill="none"><path d="M-103.37 402.78L-103.37 402.78" stroke="rgba(198, 91, 220, 1)" stroke-width="1.5"></path><path d="M-103.37 402.78L-57.33 536.5" stroke="rgba(198, 91, 220, 1)" stroke-width="1.5"></path><path d="M-103.37 402.78L76.52 337.91" stroke="rgba(198, 91, 220, 1)" stroke-width="1.5"></path><path d="M-103.37 402.78L-97.54 650.86" stroke="rgba(198, 91, 220, 1)" stroke-width="1.5"></path><path d="M-103.37 402.78L205.85 506.89" stroke="rgba(198, 91, 220, 1)" stroke-width="1.5"></path><path d="M-57.33 536.5L-57.33 536.5" stroke="rgba(198, 91, 220, 1)" stroke-width="1.5"></path><path d="M-57.33 536.5L-97.54 650.86" stroke="rgba(198, 91, 220, 1)" stroke-width="1.5"></path><path d="M-57.33 536.5L107.3 696.86" stroke="rgba(198, 91, 220, 1)" stroke-width="1.5"></path><path d="M-57.33 536.5L76.52 337.91" stroke="rgba(198, 91, 220, 1)" stroke-width="1.5"></path><path d="M-57.33 536.5L205.85 506.89" stroke="rgba(198, 91, 220, 1)" stroke-width="1.5"></path><path d="M-97.54 650.86L-97.54 650.86" stroke="rgba(198, 91, 220, 1)" stroke-width="1.5"></path><path d="M-97.54 650.86L107.3 696.86" stroke="rgba(198, 91, 220, 1)" stroke-width="1.5"></path><path d="M-97.54 650.86L197.18 709.96" stroke="rgba(198, 91, 220, 1)" stroke-width="1.5"></path><path d="M76.52 337.91L76.52 337.91" stroke="rgba(198, 91, 220, 1)" stroke-width="1.5"></path><path d="M76.52 337.91L230.41 364.9" stroke="rgba(198, 91, 220, 1)" stroke-width="1.5"></path><path d="M76.52 337.91L205.85 506.89" stroke="rgba(198, 91, 220, 1)" stroke-width="1.5"></path><path d="M76.52 337.91L394.21 365.32" stroke="rgba(198, 91, 220, 1)" stroke-width="1.5"></path><path d="M76.52 337.91L339.62 547.73" stroke="rgba(198, 91, 220, 1)" stroke-width="1.5"></path><path d="M107.3 696.86L107.3 696.86" stroke="rgba(198, 91, 220, 1)" stroke-width="1.5"></path><path d="M107.3 696.86L197.18 709.96" stroke="rgba(198, 91, 220, 1)" stroke-width="1.5"></path><path d="M107.3 696.86L205.85 506.89" stroke="rgba(198, 91, 220, 1)" stroke-width="1.5"></path><path d="M230.41 364.9L230.41 364.9" stroke="rgba(198, 91, 220, 1)" stroke-width="1.5"></path><path d="M230.41 364.9L205.85 506.89" stroke="rgba(198, 91, 220, 1)" stroke-width="1.5"></path><path d="M230.41 364.9L394.21 365.32" stroke="rgba(198, 91, 220, 1)" stroke-width="1.5"></path><path d="M230.41 364.9L339.62 547.73" stroke="rgba(198, 91, 220, 1)" stroke-width="1.5"></path><path d="M230.41 364.9L505.99 353.73" stroke="rgba(198, 91, 220, 1)" stroke-width="1.5"></path><path d="M230.41 364.9L509.65 530.28" stroke="rgba(198, 91, 220, 1)" stroke-width="1.5"></path><path d="M205.85 506.89L205.85 506.89" stroke="rgba(198, 91, 220, 1)" stroke-width="1.5"></path><path d="M205.85 506.89L339.62 547.73" stroke="rgba(198, 91, 220, 1)" stroke-width="1.5"></path><path d="M205.85 506.89L197.18 709.96" stroke="rgba(198, 91, 220, 1)" stroke-width="1.5"></path><path d="M197.18 709.96L197.18 709.96" stroke="rgba(198, 91, 220, 1)" stroke-width="1.5"></path><path d="M197.18 709.96L374.51 693.66" stroke="rgba(198, 91, 220, 1)" stroke-width="1.5"></path><path d="M197.18 709.96L339.62 547.73" stroke="rgba(198, 91, 220, 1)" stroke-width="1.5"></path><path d="M394.21 365.32L394.21 365.32" stroke="rgba(198, 91, 220, 1)" stroke-width="1.5"></path><path d="M394.21 365.32L505.99 353.73" stroke="rgba(198, 91, 220, 1)" stroke-width="1.5"></path><path d="M394.21 365.32L339.62 547.73" stroke="rgba(198, 91, 220, 1)" stroke-width="1.5"></path><path d="M394.21 365.32L509.65 530.28" stroke="rgba(198, 91, 220, 1)" stroke-width="1.5"></path><path d="M394.21 365.32L205.85 506.89" stroke="rgba(198, 91, 220, 1)" stroke-width="1.5"></path><path d="M394.21 365.32L641.94 368.64" stroke="rgba(198, 91, 220, 1)" stroke-width="1.5"></path><path d="M339.62 547.73L339.62 547.73" stroke="rgba(198, 91, 220, 1)" stroke-width="1.5"></path><path d="M339.62 547.73L374.51 693.66" stroke="rgba(198, 91, 220, 1)" stroke-width="1.5"></path><path d="M339.62 547.73L509.65 530.28" stroke="rgba(198, 91, 220, 1)" stroke-width="1.5"></path><path d="M374.51 693.66L374.51 693.66" stroke="rgba(198, 91, 220, 1)" stroke-width="1.5"></path><path d="M374.51 693.66L559.35 676.68" stroke="rgba(198, 91, 220, 1)" stroke-width="1.5"></path><path d="M505.99 353.73L505.99 353.73" stroke="rgba(198, 91, 220, 1)" stroke-width="1.5"></path><path d="M505.99 353.73L641.94 368.64" stroke="rgba(198, 91, 220, 1)" stroke-width="1.5"></path><path d="M505.99 353.73L509.65 530.28" stroke="rgba(198, 91, 220, 1)" stroke-width="1.5"></path><path d="M505.99 353.73L680.53 256.96" stroke="rgba(198, 91, 220, 1)" stroke-width="1.5"></path><path d="M505.99 353.73L339.62 547.73" stroke="rgba(198, 91, 220, 1)" stroke-width="1.5"></path><path d="M505.99 353.73L677.84 544.13" stroke="rgba(198, 91, 220, 1)" stroke-width="1.5"></path><path d="M509.65 530.28L509.65 530.28" stroke="rgba(198, 91, 220, 1)" stroke-width="1.5"></path><path d="M509.65 530.28L559.35 676.68" stroke="rgba(198, 91, 220, 1)" stroke-width="1.5"></path><path d="M509.65 530.28L677.84 544.13" stroke="rgba(198, 91, 220, 1)" stroke-width="1.5"></path><path d="M509.65 530.28L666.81 666.72" stroke="rgba(198, 91, 220, 1)" stroke-width="1.5"></path><path d="M559.35 676.68L559.35 676.68" stroke="rgba(198, 91, 220, 1)" stroke-width="1.5"></path><path d="M559.35 676.68L666.81 666.72" stroke="rgba(198, 91, 220, 1)" stroke-width="1.5"></path><path d="M559.35 676.68L677.84 544.13" stroke="rgba(198, 91, 220, 1)" stroke-width="1.5"></path><path d="M559.35 676.68L339.62 547.73" stroke="rgba(198, 91, 220, 1)" stroke-width="1.5"></path><path d="M680.53 256.96L680.53 256.96" stroke="rgba(198, 91, 220, 1)" stroke-width="1.5"></path><path d="M680.53 256.96L641.94 368.64" stroke="rgba(198, 91, 220, 1)" stroke-width="1.5"></path><path d="M680.53 256.96L848.13 259.68" stroke="rgba(198, 91, 220, 1)" stroke-width="1.5"></path><path d="M641.94 368.64L641.94 368.64" stroke="rgba(198, 91, 220, 1)" stroke-width="1.5"></path><path d="M641.94 368.64L818.68 352.12" stroke="rgba(198, 91, 220, 1)" stroke-width="1.5"></path><path d="M641.94 368.64L677.84 544.13" stroke="rgba(198, 91, 220, 1)" stroke-width="1.5"></path><path d="M641.94 368.64L509.65 530.28" stroke="rgba(198, 91, 220, 1)" stroke-width="1.5"></path><path d="M677.84 544.13L677.84 544.13" stroke="rgba(198, 91, 220, 1)" stroke-width="1.5"></path><path d="M677.84 544.13L793.25 549.35" stroke="rgba(198, 91, 220, 1)" stroke-width="1.5"></path><path d="M677.84 544.13L666.81 666.72" stroke="rgba(198, 91, 220, 1)" stroke-width="1.5"></path><path d="M666.81 666.72L666.81 666.72" stroke="rgba(198, 91, 220, 1)" stroke-width="1.5"></path><path d="M848.13 259.68L848.13 259.68" stroke="rgba(198, 91, 220, 1)" stroke-width="1.5"></path><path d="M848.13 259.68L818.68 352.12" stroke="rgba(198, 91, 220, 1)" stroke-width="1.5"></path><path d="M848.13 259.68L975.26 188.84" stroke="rgba(198, 91, 220, 1)" stroke-width="1.5"></path><path d="M848.13 259.68L957.45 381.33" stroke="rgba(198, 91, 220, 1)" stroke-width="1.5"></path><path d="M848.13 259.68L956.09 91" stroke="rgba(198, 91, 220, 1)" stroke-width="1.5"></path><path d="M848.13 259.68L641.94 368.64" stroke="rgba(198, 91, 220, 1)" stroke-width="1.5"></path><path d="M818.68 352.12L818.68 352.12" stroke="rgba(198, 91, 220, 1)" stroke-width="1.5"></path><path d="M818.68 352.12L957.45 381.33" stroke="rgba(198, 91, 220, 1)" stroke-width="1.5"></path><path d="M818.68 352.12L680.53 256.96" stroke="rgba(198, 91, 220, 1)" stroke-width="1.5"></path><path d="M793.25 549.35L793.25 549.35" stroke="rgba(198, 91, 220, 1)" stroke-width="1.5"></path><path d="M793.25 549.35L839.41 654" stroke="rgba(198, 91, 220, 1)" stroke-width="1.5"></path><path d="M793.25 549.35L666.81 666.72" stroke="rgba(198, 91, 220, 1)" stroke-width="1.5"></path><path d="M793.25 549.35L818.68 352.12" stroke="rgba(198, 91, 220, 1)" stroke-width="1.5"></path><path d="M793.25 549.35L992.12 508.24" stroke="rgba(198, 91, 220, 1)" stroke-width="1.5"></path><path d="M839.41 654L839.41 654" stroke="rgba(198, 91, 220, 1)" stroke-width="1.5"></path><path d="M839.41 654L1005.1 643.18" stroke="rgba(198, 91, 220, 1)" stroke-width="1.5"></path><path d="M839.41 654L666.81 666.72" stroke="rgba(198, 91, 220, 1)" stroke-width="1.5"></path><path d="M839.41 654L677.84 544.13" stroke="rgba(198, 91, 220, 1)" stroke-width="1.5"></path><path d="M993.86 -102.44L993.86 -102.44" stroke="rgba(198, 91, 220, 1)" stroke-width="1.5"></path><path d="M993.86 -102.44L1145.95 -107.69" stroke="rgba(198, 91, 220, 1)" stroke-width="1.5"></path><path d="M993.86 -102.44L1089.13 45.31" stroke="rgba(198, 91, 220, 1)" stroke-width="1.5"></path><path d="M956.09 91L956.09 91" stroke="rgba(198, 91, 220, 1)" stroke-width="1.5"></path><path d="M956.09 91L975.26 188.84" stroke="rgba(198, 91, 220, 1)" stroke-width="1.5"></path><path d="M956.09 91L1089.13 45.31" stroke="rgba(198, 91, 220, 1)" stroke-width="1.5"></path><path d="M956.09 91L1105.24 197.66" stroke="rgba(198, 91, 220, 1)" stroke-width="1.5"></path><path d="M956.09 91L993.86 -102.44" stroke="rgba(198, 91, 220, 1)" stroke-width="1.5"></path><path d="M975.26 188.84L975.26 188.84" stroke="rgba(198, 91, 220, 1)" stroke-width="1.5"></path><path d="M975.26 188.84L1105.24 197.66" stroke="rgba(198, 91, 220, 1)" stroke-width="1.5"></path><path d="M975.26 188.84L1089.13 45.31" stroke="rgba(198, 91, 220, 1)" stroke-width="1.5"></path><path d="M975.26 188.84L957.45 381.33" stroke="rgba(198, 91, 220, 1)" stroke-width="1.5"></path><path d="M957.45 381.33L957.45 381.33" stroke="rgba(198, 91, 220, 1)" stroke-width="1.5"></path><path d="M957.45 381.33L992.12 508.24" stroke="rgba(198, 91, 220, 1)" stroke-width="1.5"></path><path d="M992.12 508.24L992.12 508.24" stroke="rgba(198, 91, 220, 1)" stroke-width="1.5"></path><path d="M992.12 508.24L1109.17 545.56" stroke="rgba(198, 91, 220, 1)" stroke-width="1.5"></path><path d="M992.12 508.24L1005.1 643.18" stroke="rgba(198, 91, 220, 1)" stroke-width="1.5"></path><path d="M1005.1 643.18L1005.1 643.18" stroke="rgba(198, 91, 220, 1)" stroke-width="1.5"></path><path d="M1005.1 643.18L1113.71 708.08" stroke="rgba(198, 91, 220, 1)" stroke-width="1.5"></path><path d="M1005.1 643.18L1109.17 545.56" stroke="rgba(198, 91, 220, 1)" stroke-width="1.5"></path><path d="M1145.95 -107.69L1145.95 -107.69" stroke="rgba(198, 91, 220, 1)" stroke-width="1.5"></path><path d="M1145.95 -107.69L1244.34 -70.96" stroke="rgba(198, 91, 220, 1)" stroke-width="1.5"></path><path d="M1089.13 45.31L1089.13 45.31" stroke="rgba(198, 91, 220, 1)" stroke-width="1.5"></path><path d="M1089.13 45.31L1105.24 197.66" stroke="rgba(198, 91, 220, 1)" stroke-width="1.5"></path><path d="M1089.13 45.31L1145.95 -107.69" stroke="rgba(198, 91, 220, 1)" stroke-width="1.5"></path><path d="M1105.24 197.66L1105.24 197.66" stroke="rgba(198, 91, 220, 1)" stroke-width="1.5"></path><path d="M1130.84 391.25L1130.84 391.25" stroke="rgba(198, 91, 220, 1)" stroke-width="1.5"></path><path d="M1130.84 391.25L1109.17 545.56" stroke="rgba(198, 91, 220, 1)" stroke-width="1.5"></path><path d="M1130.84 391.25L957.45 381.33" stroke="rgba(198, 91, 220, 1)" stroke-width="1.5"></path><path d="M1130.84 391.25L1299.76 346.5" stroke="rgba(198, 91, 220, 1)" stroke-width="1.5"></path><path d="M1130.84 391.25L992.12 508.24" stroke="rgba(198, 91, 220, 1)" stroke-width="1.5"></path><path d="M1130.84 391.25L1250.9 544.49" stroke="rgba(198, 91, 220, 1)" stroke-width="1.5"></path><path d="M1130.84 391.25L1105.24 197.66" stroke="rgba(198, 91, 220, 1)" stroke-width="1.5"></path><path d="M1109.17 545.56L1109.17 545.56" stroke="rgba(198, 91, 220, 1)" stroke-width="1.5"></path><path d="M1109.17 545.56L1250.9 544.49" stroke="rgba(198, 91, 220, 1)" stroke-width="1.5"></path><path d="M1113.71 708.08L1113.71 708.08" stroke="rgba(198, 91, 220, 1)" stroke-width="1.5"></path><path d="M1113.71 708.08L1272.8 688.03" stroke="rgba(198, 91, 220, 1)" stroke-width="1.5"></path><path d="M1113.71 708.08L1109.17 545.56" stroke="rgba(198, 91, 220, 1)" stroke-width="1.5"></path><path d="M1113.71 708.08L1250.9 544.49" stroke="rgba(198, 91, 220, 1)" stroke-width="1.5"></path><path d="M1113.71 708.08L992.12 508.24" stroke="rgba(198, 91, 220, 1)" stroke-width="1.5"></path><path d="M1244.34 -70.96L1244.34 -70.96" stroke="rgba(198, 91, 220, 1)" stroke-width="1.5"></path><path d="M1244.34 -70.96L1282.59 70.78" stroke="rgba(198, 91, 220, 1)" stroke-width="1.5"></path><path d="M1282.59 70.78L1282.59 70.78" stroke="rgba(198, 91, 220, 1)" stroke-width="1.5"></path><path d="M1282.59 70.78L1311.1 206.09" stroke="rgba(198, 91, 220, 1)" stroke-width="1.5"></path><path d="M1282.59 70.78L1421.4 59.75" stroke="rgba(198, 91, 220, 1)" stroke-width="1.5"></path><path d="M1311.1 206.09L1311.1 206.09" stroke="rgba(198, 91, 220, 1)" stroke-width="1.5"></path><path d="M1311.1 206.09L1409.57 256.84" stroke="rgba(198, 91, 220, 1)" stroke-width="1.5"></path><path d="M1299.76 346.5L1299.76 346.5" stroke="rgba(198, 91, 220, 1)" stroke-width="1.5"></path><path d="M1299.76 346.5L1311.1 206.09" stroke="rgba(198, 91, 220, 1)" stroke-width="1.5"></path><path d="M1299.76 346.5L1409.57 256.84" stroke="rgba(198, 91, 220, 1)" stroke-width="1.5"></path><path d="M1299.76 346.5L1449.37 367.87" stroke="rgba(198, 91, 220, 1)" stroke-width="1.5"></path><path d="M1299.76 346.5L1388.41 490.56" stroke="rgba(198, 91, 220, 1)" stroke-width="1.5"></path><path d="M1299.76 346.5L1250.9 544.49" stroke="rgba(198, 91, 220, 1)" stroke-width="1.5"></path><path d="M1250.9 544.49L1250.9 544.49" stroke="rgba(198, 91, 220, 1)" stroke-width="1.5"></path><path d="M1250.9 544.49L1272.8 688.03" stroke="rgba(198, 91, 220, 1)" stroke-width="1.5"></path><path d="M1250.9 544.49L1388.41 490.56" stroke="rgba(198, 91, 220, 1)" stroke-width="1.5"></path><path d="M1272.8 688.03L1272.8 688.03" stroke="rgba(198, 91, 220, 1)" stroke-width="1.5"></path><path d="M1272.8 688.03L1442.29 664.18" stroke="rgba(198, 91, 220, 1)" stroke-width="1.5"></path><path d="M1272.8 688.03L1109.17 545.56" stroke="rgba(198, 91, 220, 1)" stroke-width="1.5"></path><path d="M1398.94 -45.85L1398.94 -45.85" stroke="rgba(198, 91, 220, 1)" stroke-width="1.5"></path><path d="M1398.94 -45.85L1421.4 59.75" stroke="rgba(198, 91, 220, 1)" stroke-width="1.5"></path><path d="M1398.94 -45.85L1244.34 -70.96" stroke="rgba(198, 91, 220, 1)" stroke-width="1.5"></path><path d="M1398.94 -45.85L1282.59 70.78" stroke="rgba(198, 91, 220, 1)" stroke-width="1.5"></path><path d="M1398.94 -45.85L1561.69 -94.74" stroke="rgba(198, 91, 220, 1)" stroke-width="1.5"></path><path d="M1398.94 -45.85L1569.14 48.4" stroke="rgba(198, 91, 220, 1)" stroke-width="1.5"></path><path d="M1398.94 -45.85L1145.95 -107.69" stroke="rgba(198, 91, 220, 1)" stroke-width="1.5"></path><path d="M1421.4 59.75L1421.4 59.75" stroke="rgba(198, 91, 220, 1)" stroke-width="1.5"></path><path d="M1421.4 59.75L1569.14 48.4" stroke="rgba(198, 91, 220, 1)" stroke-width="1.5"></path><path d="M1421.4 59.75L1311.1 206.09" stroke="rgba(198, 91, 220, 1)" stroke-width="1.5"></path><path d="M1421.4 59.75L1549.68 198.9" stroke="rgba(198, 91, 220, 1)" stroke-width="1.5"></path><path d="M1421.4 59.75L1409.57 256.84" stroke="rgba(198, 91, 220, 1)" stroke-width="1.5"></path><path d="M1409.57 256.84L1409.57 256.84" stroke="rgba(198, 91, 220, 1)" stroke-width="1.5"></path><path d="M1409.57 256.84L1449.37 367.87" stroke="rgba(198, 91, 220, 1)" stroke-width="1.5"></path><path d="M1449.37 367.87L1449.37 367.87" stroke="rgba(198, 91, 220, 1)" stroke-width="1.5"></path><path d="M1449.37 367.87L1388.41 490.56" stroke="rgba(198, 91, 220, 1)" stroke-width="1.5"></path><path d="M1449.37 367.87L1588.46 358.91" stroke="rgba(198, 91, 220, 1)" stroke-width="1.5"></path><path d="M1449.37 367.87L1549.68 198.9" stroke="rgba(198, 91, 220, 1)" stroke-width="1.5"></path><path d="M1388.41 490.56L1388.41 490.56" stroke="rgba(198, 91, 220, 1)" stroke-width="1.5"></path><path d="M1442.29 664.18L1442.29 664.18" stroke="rgba(198, 91, 220, 1)" stroke-width="1.5"></path><path d="M1442.29 664.18L1599.81 639.39" stroke="rgba(198, 91, 220, 1)" stroke-width="1.5"></path><path d="M1442.29 664.18L1388.41 490.56" stroke="rgba(198, 91, 220, 1)" stroke-width="1.5"></path><path d="M1442.29 664.18L1596.47 507.51" stroke="rgba(198, 91, 220, 1)" stroke-width="1.5"></path><path d="M1442.29 664.18L1250.9 544.49" stroke="rgba(198, 91, 220, 1)" stroke-width="1.5"></path><path d="M1442.29 664.18L1449.37 367.87" stroke="rgba(198, 91, 220, 1)" stroke-width="1.5"></path><path d="M1561.69 -94.74L1561.69 -94.74" stroke="rgba(198, 91, 220, 1)" stroke-width="1.5"></path><path d="M1561.69 -94.74L1569.14 48.4" stroke="rgba(198, 91, 220, 1)" stroke-width="1.5"></path><path d="M1561.69 -94.74L1421.4 59.75" stroke="rgba(198, 91, 220, 1)" stroke-width="1.5"></path><path d="M1569.14 48.4L1569.14 48.4" stroke="rgba(198, 91, 220, 1)" stroke-width="1.5"></path><path d="M1569.14 48.4L1549.68 198.9" stroke="rgba(198, 91, 220, 1)" stroke-width="1.5"></path><path d="M1569.14 48.4L1409.57 256.84" stroke="rgba(198, 91, 220, 1)" stroke-width="1.5"></path><path d="M1549.68 198.9L1549.68 198.9" stroke="rgba(198, 91, 220, 1)" stroke-width="1.5"></path><path d="M1549.68 198.9L1409.57 256.84" stroke="rgba(198, 91, 220, 1)" stroke-width="1.5"></path><path d="M1588.46 358.91L1588.46 358.91" stroke="rgba(198, 91, 220, 1)" stroke-width="1.5"></path><path d="M1588.46 358.91L1596.47 507.51" stroke="rgba(198, 91, 220, 1)" stroke-width="1.5"></path><path d="M1588.46 358.91L1549.68 198.9" stroke="rgba(198, 91, 220, 1)" stroke-width="1.5"></path><path d="M1588.46 358.91L1409.57 256.84" stroke="rgba(198, 91, 220, 1)" stroke-width="1.5"></path><path d="M1588.46 358.91L1388.41 490.56" stroke="rgba(198, 91, 220, 1)" stroke-width="1.5"></path><path d="M1588.46 358.91L1599.81 639.39" stroke="rgba(198, 91, 220, 1)" stroke-width="1.5"></path><path d="M1596.47 507.51L1596.47 507.51" stroke="rgba(198, 91, 220, 1)" stroke-width="1.5"></path><path d="M1596.47 507.51L1599.81 639.39" stroke="rgba(198, 91, 220, 1)" stroke-width="1.5"></path><path d="M1599.81 639.39L1599.81 639.39" stroke="rgba(198, 91, 220, 1)" stroke-width="1.5"></path><circle r="5" cx="-103.37" cy="402.78" fill="rgba(198, 91, 220, 1)"></circle><circle r="5" cx="-57.33" cy="536.5" fill="rgba(198, 91, 220, 1)"></circle><circle r="5" cx="-97.54" cy="650.86" fill="rgba(198, 91, 220, 1)"></circle><circle r="5" cx="76.52" cy="337.91" fill="rgba(198, 91, 220, 1)"></circle><circle r="5" cx="107.3" cy="696.86" fill="rgba(198, 91, 220, 1)"></circle><circle r="5" cx="230.41" cy="364.9" fill="rgba(198, 91, 220, 1)"></circle><circle r="5" cx="205.85" cy="506.89" fill="rgba(198, 91, 220, 1)"></circle><circle r="5" cx="197.18" cy="709.96" fill="rgba(198, 91, 220, 1)"></circle><circle r="5" cx="394.21" cy="365.32" fill="rgba(198, 91, 220, 1)"></circle><circle r="5" cx="339.62" cy="547.73" fill="rgba(198, 91, 220, 1)"></circle><circle r="5" cx="374.51" cy="693.66" fill="rgba(198, 91, 220, 1)"></circle><circle r="5" cx="505.99" cy="353.73" fill="rgba(198, 91, 220, 1)"></circle><circle r="5" cx="509.65" cy="530.28" fill="rgba(198, 91, 220, 1)"></circle><circle r="5" cx="559.35" cy="676.68" fill="rgba(198, 91, 220, 1)"></circle><circle r="5" cx="680.53" cy="256.96" fill="rgba(198, 91, 220, 1)"></circle><circle r="5" cx="641.94" cy="368.64" fill="rgba(198, 91, 220, 1)"></circle><circle r="5" cx="677.84" cy="544.13" fill="rgba(198, 91, 220, 1)"></circle><circle r="5" cx="666.81" cy="666.72" fill="rgba(198, 91, 220, 1)"></circle><circle r="5" cx="848.13" cy="259.68" fill="rgba(198, 91, 220, 1)"></circle><circle r="5" cx="818.68" cy="352.12" fill="rgba(198, 91, 220, 1)"></circle><circle r="5" cx="793.25" cy="549.35" fill="rgba(198, 91, 220, 1)"></circle><circle r="5" cx="839.41" cy="654" fill="rgba(198, 91, 220, 1)"></circle><circle r="5" cx="993.86" cy="-102.44" fill="rgba(198, 91, 220, 1)"></circle><circle r="5" cx="956.09" cy="91" fill="rgba(198, 91, 220, 1)"></circle><circle r="5" cx="975.26" cy="188.84" fill="rgba(198, 91, 220, 1)"></circle><circle r="5" cx="957.45" cy="381.33" fill="rgba(198, 91, 220, 1)"></circle><circle r="5" cx="992.12" cy="508.24" fill="rgba(198, 91, 220, 1)"></circle><circle r="5" cx="1005.1" cy="643.18" fill="rgba(198, 91, 220, 1)"></circle><circle r="5" cx="1145.95" cy="-107.69" fill="rgba(198, 91, 220, 1)"></circle><circle r="5" cx="1089.13" cy="45.31" fill="rgba(198, 91, 220, 1)"></circle><circle r="5" cx="1105.24" cy="197.66" fill="rgba(198, 91, 220, 1)"></circle><circle r="5" cx="1130.84" cy="391.25" fill="rgba(198, 91, 220, 1)"></circle><circle r="5" cx="1109.17" cy="545.56" fill="rgba(198, 91, 220, 1)"></circle><circle r="5" cx="1113.71" cy="708.08" fill="rgba(198, 91, 220, 1)"></circle><circle r="5" cx="1244.34" cy="-70.96" fill="rgba(198, 91, 220, 1)"></circle><circle r="5" cx="1282.59" cy="70.78" fill="rgba(198, 91, 220, 1)"></circle><circle r="5" cx="1311.1" cy="206.09" fill="rgba(198, 91, 220, 1)"></circle><circle r="5" cx="1299.76" cy="346.5" fill="rgba(198, 91, 220, 1)"></circle><circle r="5" cx="1250.9" cy="544.49" fill="rgba(198, 91, 220, 1)"></circle><circle r="5" cx="1272.8" cy="688.03" fill="rgba(198, 91, 220, 1)"></circle><circle r="5" cx="1398.94" cy="-45.85" fill="rgba(198, 91, 220, 1)"></circle><circle r="5" cx="1421.4" cy="59.75" fill="rgba(198, 91, 220, 1)"></circle><circle r="5" cx="1409.57" cy="256.84" fill="rgba(198, 91, 220, 1)"></circle><circle r="5" cx="1449.37" cy="367.87" fill="rgba(198, 91, 220, 1)"></circle><circle r="5" cx="1388.41" cy="490.56" fill="rgba(198, 91, 220, 1)"></circle><circle r="5" cx="1442.29" cy="664.18" fill="rgba(198, 91, 220, 1)"></circle><circle r="5" cx="1561.69" cy="-94.74" fill="rgba(198, 91, 220, 1)"></circle><circle r="5" cx="1569.14" cy="48.4" fill="rgba(198, 91, 220, 1)"></circle><circle r="5" cx="1549.68" cy="198.9" fill="rgba(198, 91, 220, 1)"></circle><circle r="5" cx="1588.46" cy="358.91" fill="rgba(198, 91, 220, 1)"></circle><circle r="5" cx="1596.47" cy="507.51" fill="rgba(198, 91, 220, 1)"></circle><circle r="5" cx="1599.81" cy="639.39" fill="rgba(198, 91, 220, 1)"></circle><path d="M-71.51 516.86L-71.51 516.86" stroke="hsl(210.10000000000002, 100%, 57.9%)" stroke-width="1.5"></path><path d="M-71.51 516.86L52.59 492.88" stroke="hsl(210.10000000000002, 100%, 57.9%)" stroke-width="1.5"></path><path d="M-71.51 516.86L-110 643.88" stroke="hsl(210.10000000000002, 100%, 57.9%)" stroke-width="1.5"></path><path d="M-71.51 516.86L103.56 670.5" stroke="hsl(210.10000000000002, 100%, 57.9%)" stroke-width="1.5"></path><path d="M-71.51 516.86L236.91 555.95" stroke="hsl(210.10000000000002, 100%, 57.9%)" stroke-width="1.5"></path><path d="M-71.51 516.86L207.03 673.9" stroke="hsl(210.10000000000002, 100%, 57.9%)" stroke-width="1.5"></path><path d="M-71.51 516.86L357.02 696.38" stroke="hsl(210.10000000000002, 100%, 57.9%)" stroke-width="1.5"></path><path d="M207.03 673.9L207.03 673.9" stroke="hsl(210.10000000000002, 100%, 57.9%)" stroke-width="1.5"></path><path d="M207.03 673.9L103.56 670.5" stroke="hsl(210.10000000000002, 100%, 57.9%)" stroke-width="1.5"></path><path d="M207.03 673.9L236.91 555.95" stroke="hsl(210.10000000000002, 100%, 57.9%)" stroke-width="1.5"></path><path d="M207.03 673.9L357.02 696.38" stroke="hsl(210.10000000000002, 100%, 57.9%)" stroke-width="1.5"></path><path d="M517.08 502.95L517.08 502.95" stroke="hsl(210.10000000000002, 100%, 57.9%)" stroke-width="1.5"></path><path d="M517.08 502.95L409.51 550.35" stroke="hsl(210.10000000000002, 100%, 57.9%)" stroke-width="1.5"></path><path d="M517.08 502.95L677.96 556.9" stroke="hsl(210.10000000000002, 100%, 57.9%)" stroke-width="1.5"></path><path d="M517.08 502.95L560.73 696.51" stroke="hsl(210.10000000000002, 100%, 57.9%)" stroke-width="1.5"></path><path d="M517.08 502.95L680.66 367.86" stroke="hsl(210.10000000000002, 100%, 57.9%)" stroke-width="1.5"></path><path d="M517.08 502.95L662.34 684.27" stroke="hsl(210.10000000000002, 100%, 57.9%)" stroke-width="1.5"></path><path d="M1094.64 247.93L1094.64 247.93" stroke="hsl(210.10000000000002, 100%, 57.9%)" stroke-width="1.5"></path><path d="M1094.64 247.93L1132.3 348.84" stroke="hsl(210.10000000000002, 100%, 57.9%)" stroke-width="1.5"></path><path d="M1094.64 247.93L1243.9 230.16" stroke="hsl(210.10000000000002, 100%, 57.9%)" stroke-width="1.5"></path><path d="M1130.88 650.68L1130.88 650.68" stroke="hsl(210.10000000000002, 100%, 57.9%)" stroke-width="1.5"></path><path d="M1130.88 650.68L1000.15 684.58" stroke="hsl(210.10000000000002, 100%, 57.9%)" stroke-width="1.5"></path><path d="M1130.88 650.68L1263.12 538.82" stroke="hsl(210.10000000000002, 100%, 57.9%)" stroke-width="1.5"></path><path d="M1130.88 650.68L1301.95 691.2" stroke="hsl(210.10000000000002, 100%, 57.9%)" stroke-width="1.5"></path><path d="M1130.88 650.68L973.59 488.08" stroke="hsl(210.10000000000002, 100%, 57.9%)" stroke-width="1.5"></path><path d="M1130.88 650.68L1391.16 507.88" stroke="hsl(210.10000000000002, 100%, 57.9%)" stroke-width="1.5"></path><path d="M1130.88 650.68L1132.3 348.84" stroke="hsl(210.10000000000002, 100%, 57.9%)" stroke-width="1.5"></path><path d="M1304.4 90.48L1304.4 90.48" stroke="hsl(210.10000000000002, 100%, 57.9%)" stroke-width="1.5"></path><path d="M1304.4 90.48L1453.12 95.06" stroke="hsl(210.10000000000002, 100%, 57.9%)" stroke-width="1.5"></path><path d="M1304.4 90.48L1243.9 230.16" stroke="hsl(210.10000000000002, 100%, 57.9%)" stroke-width="1.5"></path><path d="M1304.4 90.48L1391.81 225.76" stroke="hsl(210.10000000000002, 100%, 57.9%)" stroke-width="1.5"></path><path d="M1304.4 90.48L1253.9 -101.46" stroke="hsl(210.10000000000002, 100%, 57.9%)" stroke-width="1.5"></path><path d="M1304.4 90.48L1436.29 -97.19" stroke="hsl(210.10000000000002, 100%, 57.9%)" stroke-width="1.5"></path><path d="M1304.4 90.48L1094.64 247.93" stroke="hsl(210.10000000000002, 100%, 57.9%)" stroke-width="1.5"></path><path d="M1588.8 108.37L1588.8 108.37" stroke="hsl(210.10000000000002, 100%, 57.9%)" stroke-width="1.5"></path><path d="M1588.8 108.37L1575.46 200.74" stroke="hsl(210.10000000000002, 100%, 57.9%)" stroke-width="1.5"></path><path d="M1588.8 108.37L1453.12 95.06" stroke="hsl(210.10000000000002, 100%, 57.9%)" stroke-width="1.5"></path><path d="M1588.8 108.37L1583.48 -37.97" stroke="hsl(210.10000000000002, 100%, 57.9%)" stroke-width="1.5"></path><path d="M1588.8 108.37L1391.81 225.76" stroke="hsl(210.10000000000002, 100%, 57.9%)" stroke-width="1.5"></path><path d="M1588.8 108.37L1436.29 -97.19" stroke="hsl(210.10000000000002, 100%, 57.9%)" stroke-width="1.5"></path><path d="M1575.46 200.74L1575.46 200.74" stroke="hsl(210.10000000000002, 100%, 57.9%)" stroke-width="1.5"></path><path d="M1575.46 200.74L1453.12 95.06" stroke="hsl(210.10000000000002, 100%, 57.9%)" stroke-width="1.5"></path><path d="M1592.08 371.29L1592.08 371.29" stroke="hsl(210.10000000000002, 100%, 57.9%)" stroke-width="1.5"></path><path d="M1592.08 371.29L1441.77 376.73" stroke="hsl(210.10000000000002, 100%, 57.9%)" stroke-width="1.5"></path><path d="M1592.08 371.29L1575.46 200.74" stroke="hsl(210.10000000000002, 100%, 57.9%)" stroke-width="1.5"></path><path d="M1592.08 371.29L1584.26 543.72" stroke="hsl(210.10000000000002, 100%, 57.9%)" stroke-width="1.5"></path><path d="M1592.08 371.29L1391.16 507.88" stroke="hsl(210.10000000000002, 100%, 57.9%)" stroke-width="1.5"></path><path d="M1592.08 371.29L1391.81 225.76" stroke="hsl(210.10000000000002, 100%, 57.9%)" stroke-width="1.5"></path><path d="M1592.08 371.29L1588.8 108.37" stroke="hsl(210.10000000000002, 100%, 57.9%)" stroke-width="1.5"></path><path d="M1584.26 543.72L1584.26 543.72" stroke="hsl(210.10000000000002, 100%, 57.9%)" stroke-width="1.5"></path><path d="M1584.26 543.72L1577.7 645.92" stroke="hsl(210.10000000000002, 100%, 57.9%)" stroke-width="1.5"></path><path d="M1584.26 543.72L1391.16 507.88" stroke="hsl(210.10000000000002, 100%, 57.9%)" stroke-width="1.5"></path><path d="M1577.7 645.92L1577.7 645.92" stroke="hsl(210.10000000000002, 100%, 57.9%)" stroke-width="1.5"></path><path d="M1577.7 645.92L1435.22 689.83" stroke="hsl(210.10000000000002, 100%, 57.9%)" stroke-width="1.5"></path><path d="M1577.7 645.92L1391.16 507.88" stroke="hsl(210.10000000000002, 100%, 57.9%)" stroke-width="1.5"></path><path d="M-110 643.88L-110 643.88" stroke="hsl(210.10000000000002, 100%, 57.9%)" stroke-width="1.5"></path><path d="M-110 643.88L103.56 670.5" stroke="hsl(210.10000000000002, 100%, 57.9%)" stroke-width="1.5"></path><path d="M-110 643.88L52.59 492.88" stroke="hsl(210.10000000000002, 100%, 57.9%)" stroke-width="1.5"></path><path d="M-110 643.88L207.03 673.9" stroke="hsl(210.10000000000002, 100%, 57.9%)" stroke-width="1.5"></path><path d="M-110 643.88L236.91 555.95" stroke="hsl(210.10000000000002, 100%, 57.9%)" stroke-width="1.5"></path><path d="M52.59 492.88L52.59 492.88" stroke="hsl(210.10000000000002, 100%, 57.9%)" stroke-width="1.5"></path><path d="M52.59 492.88L103.56 670.5" stroke="hsl(210.10000000000002, 100%, 57.9%)" stroke-width="1.5"></path><path d="M52.59 492.88L236.91 555.95" stroke="hsl(210.10000000000002, 100%, 57.9%)" stroke-width="1.5"></path><path d="M52.59 492.88L207.03 673.9" stroke="hsl(210.10000000000002, 100%, 57.9%)" stroke-width="1.5"></path><path d="M103.56 670.5L103.56 670.5" stroke="hsl(210.10000000000002, 100%, 57.9%)" stroke-width="1.5"></path><path d="M103.56 670.5L236.91 555.95" stroke="hsl(210.10000000000002, 100%, 57.9%)" stroke-width="1.5"></path><path d="M236.91 555.95L236.91 555.95" stroke="hsl(210.10000000000002, 100%, 57.9%)" stroke-width="1.5"></path><path d="M236.91 555.95L409.51 550.35" stroke="hsl(210.10000000000002, 100%, 57.9%)" stroke-width="1.5"></path><path d="M236.91 555.95L357.02 696.38" stroke="hsl(210.10000000000002, 100%, 57.9%)" stroke-width="1.5"></path><path d="M409.51 550.35L409.51 550.35" stroke="hsl(210.10000000000002, 100%, 57.9%)" stroke-width="1.5"></path><path d="M409.51 550.35L357.02 696.38" stroke="hsl(210.10000000000002, 100%, 57.9%)" stroke-width="1.5"></path><path d="M409.51 550.35L560.73 696.51" stroke="hsl(210.10000000000002, 100%, 57.9%)" stroke-width="1.5"></path><path d="M357.02 696.38L357.02 696.38" stroke="hsl(210.10000000000002, 100%, 57.9%)" stroke-width="1.5"></path><path d="M357.02 696.38L560.73 696.51" stroke="hsl(210.10000000000002, 100%, 57.9%)" stroke-width="1.5"></path><path d="M357.02 696.38L517.08 502.95" stroke="hsl(210.10000000000002, 100%, 57.9%)" stroke-width="1.5"></path><path d="M357.02 696.38L103.56 670.5" stroke="hsl(210.10000000000002, 100%, 57.9%)" stroke-width="1.5"></path><path d="M560.73 696.51L560.73 696.51" stroke="hsl(210.10000000000002, 100%, 57.9%)" stroke-width="1.5"></path><path d="M560.73 696.51L662.34 684.27" stroke="hsl(210.10000000000002, 100%, 57.9%)" stroke-width="1.5"></path><path d="M560.73 696.51L677.96 556.9" stroke="hsl(210.10000000000002, 100%, 57.9%)" stroke-width="1.5"></path><path d="M680.66 367.86L680.66 367.86" stroke="hsl(210.10000000000002, 100%, 57.9%)" stroke-width="1.5"></path><path d="M680.66 367.86L818.32 392.11" stroke="hsl(210.10000000000002, 100%, 57.9%)" stroke-width="1.5"></path><path d="M680.66 367.86L677.96 556.9" stroke="hsl(210.10000000000002, 100%, 57.9%)" stroke-width="1.5"></path><path d="M680.66 367.86L795.72 562.45" stroke="hsl(210.10000000000002, 100%, 57.9%)" stroke-width="1.5"></path><path d="M680.66 367.86L972.45 363.7" stroke="hsl(210.10000000000002, 100%, 57.9%)" stroke-width="1.5"></path><path d="M680.66 367.86L973.59 488.08" stroke="hsl(210.10000000000002, 100%, 57.9%)" stroke-width="1.5"></path><path d="M677.96 556.9L677.96 556.9" stroke="hsl(210.10000000000002, 100%, 57.9%)" stroke-width="1.5"></path><path d="M677.96 556.9L795.72 562.45" stroke="hsl(210.10000000000002, 100%, 57.9%)" stroke-width="1.5"></path><path d="M677.96 556.9L662.34 684.27" stroke="hsl(210.10000000000002, 100%, 57.9%)" stroke-width="1.5"></path><path d="M677.96 556.9L818.32 392.11" stroke="hsl(210.10000000000002, 100%, 57.9%)" stroke-width="1.5"></path><path d="M662.34 684.27L662.34 684.27" stroke="hsl(210.10000000000002, 100%, 57.9%)" stroke-width="1.5"></path><path d="M818.32 392.11L818.32 392.11" stroke="hsl(210.10000000000002, 100%, 57.9%)" stroke-width="1.5"></path><path d="M818.32 392.11L972.45 363.7" stroke="hsl(210.10000000000002, 100%, 57.9%)" stroke-width="1.5"></path><path d="M818.32 392.11L795.72 562.45" stroke="hsl(210.10000000000002, 100%, 57.9%)" stroke-width="1.5"></path><path d="M795.72 562.45L795.72 562.45" stroke="hsl(210.10000000000002, 100%, 57.9%)" stroke-width="1.5"></path><path d="M795.72 562.45L662.34 684.27" stroke="hsl(210.10000000000002, 100%, 57.9%)" stroke-width="1.5"></path><path d="M795.72 562.45L973.59 488.08" stroke="hsl(210.10000000000002, 100%, 57.9%)" stroke-width="1.5"></path><path d="M972.45 363.7L972.45 363.7" stroke="hsl(210.10000000000002, 100%, 57.9%)" stroke-width="1.5"></path><path d="M972.45 363.7L973.59 488.08" stroke="hsl(210.10000000000002, 100%, 57.9%)" stroke-width="1.5"></path><path d="M972.45 363.7L1132.3 348.84" stroke="hsl(210.10000000000002, 100%, 57.9%)" stroke-width="1.5"></path><path d="M972.45 363.7L1094.64 247.93" stroke="hsl(210.10000000000002, 100%, 57.9%)" stroke-width="1.5"></path><path d="M973.59 488.08L973.59 488.08" stroke="hsl(210.10000000000002, 100%, 57.9%)" stroke-width="1.5"></path><path d="M973.59 488.08L818.32 392.11" stroke="hsl(210.10000000000002, 100%, 57.9%)" stroke-width="1.5"></path><path d="M973.59 488.08L1000.15 684.58" stroke="hsl(210.10000000000002, 100%, 57.9%)" stroke-width="1.5"></path><path d="M973.59 488.08L1132.3 348.84" stroke="hsl(210.10000000000002, 100%, 57.9%)" stroke-width="1.5"></path><path d="M1000.15 684.58L1000.15 684.58" stroke="hsl(210.10000000000002, 100%, 57.9%)" stroke-width="1.5"></path><path d="M1000.15 684.58L795.72 562.45" stroke="hsl(210.10000000000002, 100%, 57.9%)" stroke-width="1.5"></path><path d="M1000.15 684.58L1263.12 538.82" stroke="hsl(210.10000000000002, 100%, 57.9%)" stroke-width="1.5"></path><path d="M1132.3 348.84L1132.3 348.84" stroke="hsl(210.10000000000002, 100%, 57.9%)" stroke-width="1.5"></path><path d="M1132.3 348.84L1288.25 379.55" stroke="hsl(210.10000000000002, 100%, 57.9%)" stroke-width="1.5"></path><path d="M1253.9 -101.46L1253.9 -101.46" stroke="hsl(210.10000000000002, 100%, 57.9%)" stroke-width="1.5"></path><path d="M1253.9 -101.46L1436.29 -97.19" stroke="hsl(210.10000000000002, 100%, 57.9%)" stroke-width="1.5"></path><path d="M1243.9 230.16L1243.9 230.16" stroke="hsl(210.10000000000002, 100%, 57.9%)" stroke-width="1.5"></path><path d="M1243.9 230.16L1391.81 225.76" stroke="hsl(210.10000000000002, 100%, 57.9%)" stroke-width="1.5"></path><path d="M1288.25 379.55L1288.25 379.55" stroke="hsl(210.10000000000002, 100%, 57.9%)" stroke-width="1.5"></path><path d="M1288.25 379.55L1441.77 376.73" stroke="hsl(210.10000000000002, 100%, 57.9%)" stroke-width="1.5"></path><path d="M1288.25 379.55L1243.9 230.16" stroke="hsl(210.10000000000002, 100%, 57.9%)" stroke-width="1.5"></path><path d="M1288.25 379.55L1263.12 538.82" stroke="hsl(210.10000000000002, 100%, 57.9%)" stroke-width="1.5"></path><path d="M1288.25 379.55L1391.16 507.88" stroke="hsl(210.10000000000002, 100%, 57.9%)" stroke-width="1.5"></path><path d="M1288.25 379.55L1391.81 225.76" stroke="hsl(210.10000000000002, 100%, 57.9%)" stroke-width="1.5"></path><path d="M1263.12 538.82L1263.12 538.82" stroke="hsl(210.10000000000002, 100%, 57.9%)" stroke-width="1.5"></path><path d="M1263.12 538.82L1391.16 507.88" stroke="hsl(210.10000000000002, 100%, 57.9%)" stroke-width="1.5"></path><path d="M1263.12 538.82L1301.95 691.2" stroke="hsl(210.10000000000002, 100%, 57.9%)" stroke-width="1.5"></path><path d="M1263.12 538.82L1435.22 689.83" stroke="hsl(210.10000000000002, 100%, 57.9%)" stroke-width="1.5"></path><path d="M1301.95 691.2L1301.95 691.2" stroke="hsl(210.10000000000002, 100%, 57.9%)" stroke-width="1.5"></path><path d="M1301.95 691.2L1435.22 689.83" stroke="hsl(210.10000000000002, 100%, 57.9%)" stroke-width="1.5"></path><path d="M1436.29 -97.19L1436.29 -97.19" stroke="hsl(210.10000000000002, 100%, 57.9%)" stroke-width="1.5"></path><path d="M1436.29 -97.19L1583.48 -37.97" stroke="hsl(210.10000000000002, 100%, 57.9%)" stroke-width="1.5"></path><path d="M1453.12 95.06L1453.12 95.06" stroke="hsl(210.10000000000002, 100%, 57.9%)" stroke-width="1.5"></path><path d="M1453.12 95.06L1391.81 225.76" stroke="hsl(210.10000000000002, 100%, 57.9%)" stroke-width="1.5"></path><path d="M1391.81 225.76L1391.81 225.76" stroke="hsl(210.10000000000002, 100%, 57.9%)" stroke-width="1.5"></path><path d="M1391.81 225.76L1441.77 376.73" stroke="hsl(210.10000000000002, 100%, 57.9%)" stroke-width="1.5"></path><path d="M1391.81 225.76L1575.46 200.74" stroke="hsl(210.10000000000002, 100%, 57.9%)" stroke-width="1.5"></path><path d="M1441.77 376.73L1441.77 376.73" stroke="hsl(210.10000000000002, 100%, 57.9%)" stroke-width="1.5"></path><path d="M1441.77 376.73L1391.16 507.88" stroke="hsl(210.10000000000002, 100%, 57.9%)" stroke-width="1.5"></path><path d="M1391.16 507.88L1391.16 507.88" stroke="hsl(210.10000000000002, 100%, 57.9%)" stroke-width="1.5"></path><path d="M1391.16 507.88L1435.22 689.83" stroke="hsl(210.10000000000002, 100%, 57.9%)" stroke-width="1.5"></path><path d="M1435.22 689.83L1435.22 689.83" stroke="hsl(210.10000000000002, 100%, 57.9%)" stroke-width="1.5"></path><path d="M1435.22 689.83L1584.26 543.72" stroke="hsl(210.10000000000002, 100%, 57.9%)" stroke-width="1.5"></path><path d="M1435.22 689.83L1130.88 650.68" stroke="hsl(210.10000000000002, 100%, 57.9%)" stroke-width="1.5"></path><path d="M1583.48 -37.97L1583.48 -37.97" stroke="hsl(210.10000000000002, 100%, 57.9%)" stroke-width="1.5"></path><circle r="25" cx="-71.51" cy="516.86" fill="url(&quot;#SvgjsRadialGradient1031&quot;)"></circle><circle r="25" cx="207.03" cy="673.9" fill="url(&quot;#SvgjsRadialGradient1031&quot;)"></circle><circle r="25" cx="517.08" cy="502.95" fill="url(&quot;#SvgjsRadialGradient1031&quot;)"></circle><circle r="25" cx="1094.64" cy="247.93" fill="url(&quot;#SvgjsRadialGradient1031&quot;)"></circle><circle r="25" cx="1130.88" cy="650.68" fill="url(&quot;#SvgjsRadialGradient1031&quot;)"></circle><circle r="25" cx="1304.4" cy="90.48" fill="url(&quot;#SvgjsRadialGradient1031&quot;)"></circle><circle r="25" cx="1588.8" cy="108.37" fill="url(&quot;#SvgjsRadialGradient1031&quot;)"></circle><circle r="25" cx="1575.46" cy="200.74" fill="url(&quot;#SvgjsRadialGradient1031&quot;)"></circle><circle r="25" cx="1592.08" cy="371.29" fill="url(&quot;#SvgjsRadialGradient1031&quot;)"></circle><circle r="25" cx="1584.26" cy="543.72" fill="url(&quot;#SvgjsRadialGradient1031&quot;)"></circle><circle r="25" cx="1577.7" cy="645.92" fill="url(&quot;#SvgjsRadialGradient1031&quot;)"></circle><circle r="5" cx="-110" cy="643.88" fill="#80b8f1"></circle><circle r="5" cx="52.59" cy="492.88" fill="#80b8f1"></circle><circle r="5" cx="103.56" cy="670.5" fill="#80b8f1"></circle><circle r="5" cx="236.91" cy="555.95" fill="#80b8f1"></circle><circle r="5" cx="409.51" cy="550.35" fill="#80b8f1"></circle><circle r="5" cx="357.02" cy="696.38" fill="#80b8f1"></circle><circle r="5" cx="560.73" cy="696.51" fill="#80b8f1"></circle><circle r="5" cx="680.66" cy="367.86" fill="#80b8f1"></circle><circle r="5" cx="677.96" cy="556.9" fill="#80b8f1"></circle><circle r="5" cx="662.34" cy="684.27" fill="#80b8f1"></circle><circle r="5" cx="818.32" cy="392.11" fill="#80b8f1"></circle><circle r="5" cx="795.72" cy="562.45" fill="#80b8f1"></circle><circle r="5" cx="972.45" cy="363.7" fill="#80b8f1"></circle><circle r="5" cx="973.59" cy="488.08" fill="#80b8f1"></circle><circle r="5" cx="1000.15" cy="684.58" fill="#80b8f1"></circle><circle r="5" cx="1132.3" cy="348.84" fill="#80b8f1"></circle><circle r="5" cx="1253.9" cy="-101.46" fill="#80b8f1"></circle><circle r="5" cx="1243.9" cy="230.16" fill="#80b8f1"></circle><circle r="5" cx="1288.25" cy="379.55" fill="#80b8f1"></circle><circle r="5" cx="1263.12" cy="538.82" fill="#80b8f1"></circle><circle r="5" cx="1301.95" cy="691.2" fill="#80b8f1"></circle><circle r="5" cx="1436.29" cy="-97.19" fill="#80b8f1"></circle><circle r="5" cx="1453.12" cy="95.06" fill="#80b8f1"></circle><circle r="5" cx="1391.81" cy="225.76" fill="#80b8f1"></circle><circle r="5" cx="1441.77" cy="376.73" fill="#80b8f1"></circle><circle r="5" cx="1391.16" cy="507.88" fill="#80b8f1"></circle><circle r="5" cx="1435.22" cy="689.83" fill="#80b8f1"></circle><circle r="5" cx="1583.48" cy="-37.97" fill="#80b8f1"></circle></g><defs><mask id="SvgjsMask1030"><rect width="1440" height="560" fill="#ffffff"></rect></mask><radialGradient id="SvgjsRadialGradient1031"><stop stop-color="#ffffff" offset="0.1"></stop><stop stop-color="rgba(0, 113, 227, 1)" offset="0.2"></stop><stop stop-color="rgba(0, 113, 227, 0)" offset="1"></stop></radialGradient></defs></svg>